<mxfile host="app.diagrams.net" modified="2023-09-07T16:20:26.930Z" agent="Mozilla/5.0 (Windows NT 6.1; Win64; x64) AppleWebKit/537.36 (KHTML, like Gecko) Chrome/114.0.0.0 YaBrowser/23.7.4.971 Yowser/2.5 Safari/537.36" version="21.7.2" etag="75XnQXh4Znzu13F4dU2r" type="github">
  <diagram name="Страница — 1" id="B2SFFCM-c9VE9dIxtit2">
    <mxGraphModel>
      <root>
        <mxCell id="0" />
        <mxCell id="1" parent="0" />
      </root>
    </mxGraphModel>
  </diagram>
</mxfile>
